<svg width="19" height="18" viewBox="0 0 19 18" fill="none" xmlns="http://www.w3.org/2000/svg">
<path d="M12.8467 13.275C12.6634 13.0583 12.5717 12.8127 12.5717 12.538C12.5717 12.2633 12.6634 12.034 12.8467 11.85L14.6967 10H7.52175C7.23841 10 7.00075 9.904 6.80875 9.712C6.61675 9.52 6.52108 9.28267 6.52175 9C6.52175 8.71667 6.61775 8.479 6.80975 8.287C7.00175 8.095 7.23908 7.99934 7.52175 8H14.6967L12.8467 6.15C12.6467 5.95 12.5467 5.71234 12.5467 5.437C12.5467 5.16167 12.6467 4.92434 12.8467 4.725C13.0301 4.525 13.2594 4.425 13.5347 4.425C13.8101 4.425 14.0391 4.51667 14.2217 4.7L17.8217 8.3C17.9217 8.4 17.9927 8.50834 18.0347 8.625C18.0767 8.74167 18.0974 8.86667 18.0967 9C18.0967 9.13334 18.0761 9.25834 18.0347 9.375C17.9934 9.49167 17.9224 9.6 17.8217 9.7L14.2217 13.3C14.0051 13.5167 13.7674 13.6127 13.5087 13.588C13.2501 13.5633 13.0294 13.459 12.8467 13.275ZM2.52175 18C1.97175 18 1.50075 17.804 1.10875 17.412C0.716745 17.02 0.521079 16.5493 0.521745 16V2C0.521745 1.45 0.717746 0.979002 1.10975 0.587002C1.50175 0.195002 1.97241 -0.000664969 2.52175 1.69779e-06H8.52175C8.80508 1.69779e-06 9.04275 0.0960018 9.23475 0.288002C9.42675 0.480002 9.52241 0.717335 9.52175 1C9.52175 1.28333 9.42575 1.521 9.23375 1.713C9.04175 1.905 8.80441 2.00067 8.52175 2H2.52175V16H8.52175C8.80508 16 9.04275 16.096 9.23475 16.288C9.42675 16.48 9.52241 16.7173 9.52175 17C9.52175 17.2833 9.42575 17.521 9.23375 17.713C9.04175 17.905 8.80441 18.0007 8.52175 18H2.52175Z" fill="white"/>
</svg>
