<svg width="22" height="18" viewBox="0 0 22 18" fill="none" xmlns="http://www.w3.org/2000/svg">
<path d="M5.23801 0C6.20501 0 6.98801 0.784 6.98801 1.75V16.25C6.98801 16.4798 6.94274 16.7074 6.8548 16.9197C6.76685 17.132 6.63795 17.3249 6.47544 17.4874C6.31294 17.6499 6.12002 17.7788 5.9077 17.8668C5.69538 17.9547 5.46782 18 5.23801 18H2.73801C2.27388 18 1.82876 17.8156 1.50057 17.4874C1.17238 17.1592 0.988007 16.7141 0.988007 16.25V1.75C0.988295 1.31082 1.1537 0.88781 1.45139 0.564924C1.74908 0.242038 2.1573 0.0428869 2.59501 0.00699997L2.73801 0H5.23801ZM19.264 0C20.231 0 21.014 0.784 21.014 1.75V16.25C21.014 16.7141 20.8296 17.1592 20.5014 17.4874C20.1733 17.8156 19.7281 18 19.264 18H16.764C16.2999 18 15.8548 17.8156 15.5266 17.4874C15.1984 17.1592 15.014 16.7141 15.014 16.25V1.75C15.014 0.784 15.798 0 16.764 0H19.264ZM12.238 0C13.205 0 13.988 0.784 13.988 1.75V16.25C13.988 16.7141 13.8036 17.1592 13.4754 17.4874C13.1473 17.8156 12.7021 18 12.238 18H9.73801C9.27388 18 8.82876 17.8156 8.50057 17.4874C8.17238 17.1592 7.98801 16.7141 7.98801 16.25V1.75C7.98801 0.784 8.77201 0 9.73801 0H12.238ZM5.23801 1.5H2.73801L2.68101 1.507C2.626 1.51988 2.57698 1.55101 2.54193 1.59532C2.50688 1.63963 2.48787 1.69451 2.48801 1.751V16.251C2.48801 16.389 2.60001 16.501 2.73801 16.501H5.23801C5.30431 16.501 5.3679 16.4747 5.41478 16.4278C5.46167 16.3809 5.48801 16.3173 5.48801 16.251V1.75C5.48801 1.6837 5.46167 1.62011 5.41478 1.57322C5.3679 1.52634 5.30431 1.5 5.23801 1.5ZM19.264 1.5H16.764C16.6977 1.5 16.6341 1.52634 16.5872 1.57322C16.5403 1.62011 16.514 1.6837 16.514 1.75V16.25C16.514 16.389 16.626 16.5 16.764 16.5H19.264C19.3303 16.5 19.3939 16.4737 19.4408 16.4268C19.4877 16.3799 19.514 16.3163 19.514 16.25V1.75C19.514 1.6837 19.4877 1.62011 19.4408 1.57322C19.3939 1.52634 19.3303 1.5 19.264 1.5ZM12.238 1.5H9.73801C9.6717 1.5 9.60811 1.52634 9.56123 1.57322C9.51435 1.62011 9.48801 1.6837 9.48801 1.75V16.25C9.48801 16.388 9.60001 16.5 9.73801 16.5H12.238C12.3043 16.5 12.3679 16.4737 12.4148 16.4268C12.4617 16.3799 12.488 16.3163 12.488 16.25V1.75C12.488 1.6837 12.4617 1.62011 12.4148 1.57322C12.3679 1.52634 12.3043 1.5 12.238 1.5Z" fill="#08979D"/>
</svg>
